<svg id="behance" xmlns="http://www.w3.org/2000/svg" width="41.052" height="25.657" viewBox="0 0 41.052 25.657">
  <path id="Path_1" data-name="Path 1" d="M21.147,22.369c0-3.161-1.5-5.5-4.61-6.373a5.39,5.39,0,0,0,3.448-5.258c0-5.015-3.749-6.238-8.075-6.238H0V29.68H12.244c4.591,0,8.9-2.195,8.9-7.311ZM5.552,8.8h5.21c2,0,3.806.561,3.806,2.877,0,2.138-1.4,3-3.387,3H5.552Zm0,16.605V18.47H11.6c2.444,0,3.991,1.016,3.991,3.6,0,2.543-1.846,3.339-4.105,3.339Z" transform="translate(0 -4.5)" fill="#e2dada"/>
  <path id="Path_2" data-name="Path 2" d="M22.683,27.483c4.369,0,7.2-1.962,8.559-6.132H26.809c-.477,1.557-2.444,2.379-3.97,2.379-2.944,0-4.49-1.719-4.49-4.641H31.542c.022-.3.043-.616.043-.936,0-5.393-3.164-9.89-8.9-9.89-5.574,0-9.358,4.177-9.358,9.649C13.323,23.588,16.908,27.483,22.683,27.483Zm-.157-15.439c2.523,0,3.792,1.478,4,3.895H18.356a3.922,3.922,0,0,1,4.17-3.895Z" transform="translate(9.467 -1.826)" fill="#e2dada"/>
  <path id="Path_3" data-name="Path 3" d="M15.667,5.273H25.909v2.48H15.667Z" transform="translate(11.131 -3.951)" fill="#e2dada"/>
</svg>
