<svg xmlns="http://www.w3.org/2000/svg" width="30" height="30" viewBox="0 0 30 30">
  <g id="Group_28" data-name="Group 28" transform="translate(-996 -3365)">
    <rect id="Rectangle_30" data-name="Rectangle 30" width="30" height="30" transform="translate(996 3365)" fill="none"/>
    <path id="Icon_material-date-range" data-name="Icon material-date-range" d="M10.717,12.326H8.645V14.4h2.072Zm4.145,0H12.789V14.4h2.072Zm4.145,0H16.934V14.4h2.072Zm2.072-7.253H20.043V3H17.97V5.072H9.681V3H7.609V5.072H6.572A2.063,2.063,0,0,0,4.51,7.145L4.5,21.651a2.072,2.072,0,0,0,2.072,2.072H21.079a2.078,2.078,0,0,0,2.072-2.072V7.145A2.078,2.078,0,0,0,21.079,5.072Zm0,16.579H6.572v-11.4H21.079Z" transform="translate(996.882 3366.545)" fill="#e2dada"/>
  </g>
</svg>
