<svg xmlns="http://www.w3.org/2000/svg" width="26.017" height="26.017" viewBox="0 0 26.017 26.017">
  <path id="dribbble-logo" d="M13.008,0A13.008,13.008,0,1,0,26.017,13.009,13.023,13.023,0,0,0,13.008,0Zm8.477,6.135a10.865,10.865,0,0,1,2.434,6.54,18.362,18.362,0,0,0-7.317-.07c-.392-.916-.8-1.788-1.206-2.612A21.542,21.542,0,0,0,21.486,6.136ZM20.02,4.647a19.4,19.4,0,0,1-5.591,3.489,50.126,50.126,0,0,0-3.7-5.806A10.893,10.893,0,0,1,20.02,4.647ZM8.622,3.012a47.811,47.811,0,0,1,3.806,5.866A34.913,34.913,0,0,1,2.39,10.468,10.961,10.961,0,0,1,8.622,3.012ZM2.1,12.562h.062a37.773,37.773,0,0,0,6.622-.611,32.177,32.177,0,0,0,4.635-1.2c.378.754.754,1.549,1.119,2.383a19.681,19.681,0,0,0-5.11,2.534A23.012,23.012,0,0,0,4.68,20.06a10.868,10.868,0,0,1-2.591-7.05C2.089,12.859,2.094,12.71,2.1,12.562Zm4.085,8.964a21,21,0,0,1,4.489-4.175,17.513,17.513,0,0,1,4.656-2.288,40.635,40.635,0,0,1,2.193,7.887A10.885,10.885,0,0,1,6.185,21.525Zm13.259.3a43.294,43.294,0,0,0-2.053-7.257,16.457,16.457,0,0,1,6.391.216A10.931,10.931,0,0,1,19.444,21.824Z" transform="translate(0 -0.001)" fill="#e2dada"/>
</svg>
