<svg xmlns="http://www.w3.org/2000/svg" width="716.253" height="763.657" viewBox="0 0 716.253 763.657">
  <g id="Group_1" data-name="Group 1" transform="translate(-2786 1727.358)">
    <ellipse id="Ellipse_3" data-name="Ellipse 3" cx="334.5" cy="334" rx="334.5" ry="334" transform="translate(2833.253 -1685.702)" fill="#fff"/>
    <rect id="Rectangle_1" data-name="Rectangle 1" width="647.061" height="1.505" transform="translate(2786 -1085.453)" fill="#3f3d56"/>
    <path id="Path_3" data-name="Path 3" d="M713.686,398.628s-29.023,22.8-14.512,27.987,23.841-18.658,23.841-18.658Z" transform="translate(2380.244 -1741.772)" fill="#ffb8b8"/>
    <path id="Path_4" data-name="Path 4" d="M721.271,386.28l-6.219,10.365s10.365,0,12.439,15.548l8.292-10.365Z" transform="translate(2373.695 -1737.716)" fill="#cfcce0"/>
    <path id="Path_5" data-name="Path 5" d="M803.239,675.375l1.037,31.1-12.439,7.256-5.182-3.109,1.036-35.242Z" transform="translate(2429.588 -1790.478)" fill="#ffb8b8"/>
    <path id="Path_6" data-name="Path 6" d="M806.829,725.845l2.073,33.169-29.023,12.439,2.073-17.621s8.292-13.475,6.219-27.987Z" transform="translate(2352.404 -1849.241)" fill="#ffb8b8"/>
    <path id="Path_7" data-name="Path 7" d="M845.824,353.868s16.585,43.535,19.694,70.485,8.292,98.472,8.292,98.472l10.366,92.253-29.023,4.146-12.439-93.289-27.987-92.252-6.219,92.252-5.183,83.96-26.95,1.036-2.073-87.07L762.9,412.951l6.219-52.864Z" transform="translate(2357.98 -1727.071)" fill="#2f2e41"/>
    <path id="Path_8" data-name="Path 8" d="M907.5,782.386s1.7-17.409,14.325-7.668l2.26-1.661,10.365,22.8s12.439,17.621-9.329,19.694-19.694-19.694-19.694-19.694l-2.073-9.329,1.036-6.109Z" transform="translate(2311.85 -1864.32)" fill="#2f2e41"/>
    <path id="Path_9" data-name="Path 9" d="M789.593,756.714a16.467,16.467,0,0,1,8.292,14.511c0,10.366-1.036,11.4-1.036,11.4L781.3,786.774s-10.365-1.037-16.585,5.183S727.4,802.322,727.4,794.03s25.914-21.767,25.914-21.767,7.7-13,13.177-11.681,7.554,3.388,7.554,4.425-3.11,8.292-3.11,8.292S788.556,769.153,789.593,756.714Z" transform="translate(2369.64 -1859.379)" fill="#2f2e41"/>
    <circle id="Ellipse_1" data-name="Ellipse 1" cx="25.914" cy="25.914" r="25.914" transform="translate(3131.246 -1552.526)" fill="#ffb8b8"/>
    <path id="Path_10" data-name="Path 10" d="M831.419,135.466l11.4,25.914-31.1,44.572s-2.073-48.718-8.292-57.01S831.419,135.466,831.419,135.466Z" transform="translate(2344.916 -1655.341)" fill="#ffb8b8"/>
    <path id="Path_11" data-name="Path 11" d="M686.866,133.646l5.183-13.475,4.146,1.036,5.183-4.146,7.256-22.8L719,101.513,732.474,237.3l-83.96,2.073,11.4-94.326,10.366-26.95,7.482-9.892,4.956,15.074Z" transform="translate(2474.958 -1599.62)" fill="#cfcce0"/>
    <path id="Path_12" data-name="Path 12" d="M859.367,256.305l3.172-93.764s6.157.475,8.23,3.584,36.279,9.329,36.279,9.329l-6.219,96.4s25.914,76.7,16.585,80.851-25.914,3.11-25.914,3.11Z" transform="translate(2326.297 -1664.233)" fill="#575a89"/>
    <path id="Path_13" data-name="Path 13" d="M771.242,253.506l11-63.193-24.471,16.549,6.219,45.608-5.183,31.1s-19.695,86.033-13.475,89.143,13.475,0,13.475,0l12.439-87.07Z" transform="translate(2364.15 -1673.354)" fill="#575a89"/>
    <path id="Path_14" data-name="Path 14" d="M755.478,211.868l-7.256,2.073-3.11,41.462-5.183,36.279-24.877,44.572s12.439-8.292,17.621,15.548l27.4-47.7Z" transform="translate(2373.695 -1680.434)" fill="#575a89"/>
    <path id="Path_15" data-name="Path 15" d="M886.555,386.28s-29.023,22.8-14.511,27.987,23.84-18.658,23.84-18.658Z" transform="translate(2323.468 -1737.716)" fill="#ffb8b8"/>
    <path id="Path_16" data-name="Path 16" d="M792.987,330.809l-9.329,11.4L771.22,320.444l5.182-9.329Z" transform="translate(2434.657 -1670.843)" fill="#cfcce0"/>
    <path id="Path_17" data-name="Path 17" d="M909.159,185.144,917.452,181s6.219,8.292,7.256,15.548,6.219,16.585,6.219,21.767,14.512,53.9,14.512,53.9L912.27,339.59s-7.256-24.877-22.8-26.95l25.913-36.279-14.512-25.914Z" transform="translate(2316.412 -1670.295)" fill="#575a89"/>
    <path id="Path_18" data-name="Path 18" d="M820.692,80.178l4.887-1.956s-10.218-11.249-24.433-10.271l4-4.4s-9.773-3.913-18.658,6.358c-4.671,5.4-10.075,11.745-13.443,18.894h-5.233l2.184,4.809-7.645,4.809,7.846-.864a26.875,26.875,0,0,0-.213,7.977,10.322,10.322,0,0,0,3.78,6.752h0s6.06-12.544,6.06-14.5v4.891s4.887-4.4,4.887-7.336l2.666,3.424,1.333-5.38,16.437,5.38-2.665-4.4L812.7,95.829l-4-5.38s11.55,6.358,11.995,11.738,3.825,10.478,3.825,10.478S833.575,87.514,820.692,80.178Z" transform="translate(2358.161 -1631.481)" fill="#2f2e41"/>
    <ellipse id="Ellipse_2" data-name="Ellipse 2" cx="2.902" cy="3.628" rx="2.902" ry="3.628" transform="translate(3175.506 -1534.387)" fill="#ffb8b8"/>
    <text id="_" data-name="?" transform="translate(2883.919 -1255.289) rotate(-9)" fill="#575a89" font-size="465" font-family="Roboto-Medium, Roboto" font-weight="500"><tspan x="0" y="0">?</tspan></text>
    <text id="_2" data-name="?" transform="matrix(-0.974, -0.225, -0.225, 0.974, 3421.528, -1053.344)" fill="#575a89" font-size="369" font-family="Roboto-Medium, Roboto" font-weight="500"><tspan x="0" y="0">?</tspan></text>
    <g id="Rectangle_2" data-name="Rectangle 2" transform="translate(2931.253 -1202.702)" fill="#fff" stroke="#707070" stroke-width="3">
      <rect width="119" height="121" stroke="none"/>
      <rect x="1.5" y="1.5" width="116" height="118" fill="none"/>
    </g>
  </g>
</svg>
