<svg id="linked-in-logo-of-two-letters" xmlns="http://www.w3.org/2000/svg" width="28.373" height="25.918" viewBox="0 0 28.373 25.918">
  <g id="Group_8" data-name="Group 8" transform="translate(0 0)">
    <path id="Path_6" data-name="Path 6" d="M.921,196.816H4.61a.921.921,0,0,0,.921-.921V179.771a.921.921,0,0,0-.921-.921H.921a.921.921,0,0,0-.921.921v16.123A.921.921,0,0,0,.921,196.816Z" transform="translate(0 -170.897)" fill="#e2dada"/>
    <path id="Path_7" data-name="Path 7" d="M.921,29.034H4.61a.921.921,0,0,0,.921-.921V24.837a.921.921,0,0,0-.921-.921H.921A.921.921,0,0,0,0,24.837v3.275A.921.921,0,0,0,.921,29.034Z" transform="translate(0 -23.916)" fill="#e2dada"/>
    <path id="Path_8" data-name="Path 8" d="M199.211,171.988a5.609,5.609,0,0,0-2.293-1.683,8.3,8.3,0,0,0-3.347-.659,8.2,8.2,0,0,0-6.3,2.837c-.342.376-.591.294-.591-.215v-1.228a.921.921,0,0,0-.921-.921h-3.295a.921.921,0,0,0-.921.921v16.123a.921.921,0,0,0,.921.921h3.689a.921.921,0,0,0,.921-.921v-5.607a18.038,18.038,0,0,1,.423-4.8,3.967,3.967,0,0,1,1.565-2.087,4.436,4.436,0,0,1,2.579-.788,3.291,3.291,0,0,1,1.919.551,3.072,3.072,0,0,1,1.152,1.545,16.485,16.485,0,0,1,.354,4.38v6.808a.921.921,0,0,0,.921.921h3.689a.921.921,0,0,0,.921-.921v-9.131a17.291,17.291,0,0,0-.3-3.72A6.093,6.093,0,0,0,199.211,171.988Z" transform="translate(-172.225 -162.165)" fill="#e2dada"/>
  </g>
</svg>
