<svg xmlns="http://www.w3.org/2000/svg" width="87.51" height="88.234" viewBox="0 0 87.51 88.234">
  <g id="Group_19" data-name="Group 19" transform="translate(-44.694 -35.168)">
    <g id="Group_16" data-name="Group 16" transform="translate(-24.29 170.71)">
      <g id="Group_15" data-name="Group 15" transform="translate(84.147 -135.542)">
        <path id="Path_12" data-name="Path 12" d="M327.211,263.391H306.1a2.639,2.639,0,0,1-1.865-4.5l21.112-21.112a2.639,2.639,0,0,1,4.5,1.865v21.112A2.638,2.638,0,0,1,327.211,263.391Zm-14.74-5.279h12.1v-12.1Z" transform="translate(-303.46 -237)" fill="#e2dada"/>
        <path id="Path_13" data-name="Path 13" d="M327.211,284.373a2.642,2.642,0,0,1-1.865-.773l-21.112-21.112a2.639,2.639,0,0,1,1.865-4.5h21.112a2.637,2.637,0,0,1,2.639,2.638v21.112a2.638,2.638,0,0,1-2.639,2.64Zm-14.74-21.112,12.1,12.1v-12.1Z" transform="translate(-303.46 -226.316)" fill="#e2dada"/>
        <path id="Path_14" data-name="Path 14" d="M348.2,263.389H327.083a2.638,2.638,0,0,1-2.639-2.639V239.638a2.639,2.639,0,0,1,4.5-1.865l21.112,21.112a2.639,2.639,0,0,1-1.865,4.5Zm-18.474-5.279h12.1l-12.1-12.1Z" transform="translate(-292.776 -236.999)" fill="#e2dada"/>
        <path id="Path_15" data-name="Path 15" d="M348.2,284.374H327.084a2.639,2.639,0,0,1-1.867-4.5l21.112-21.112a2.639,2.639,0,0,1,4.5,1.865v21.112A2.637,2.637,0,0,1,348.2,284.374ZM333.454,279.1h12.1v-12.1Z" transform="translate(-292.776 -226.316)" fill="#e2dada"/>
      </g>
    </g>
    <g id="Group_17" data-name="Group 17" transform="translate(-108.306 154.648)" style="isolation: isolate">
      <path id="Path_16" data-name="Path 16" d="M291.683,286.177h1.885v1.752a1.383,1.383,0,0,1,.443-.966,3.244,3.244,0,0,1,1.131-.73,3.592,3.592,0,0,1,1.354-.277h.976v1.708h-1.11a4.3,4.3,0,0,0-2.053.365,1.4,1.4,0,0,0-.631,1.322v7.566h-2Z" transform="translate(-138.683 -328.384)" fill="#e2dada"/>
      <path id="Path_17" data-name="Path 17" d="M295.248,286.177h2v1.308q.311-1.53,3.617-1.529,2.683,0,3.351,1.464a1.751,1.751,0,0,1,1.208-1.088,7.119,7.119,0,0,1,2.475-.376,4.191,4.191,0,0,1,2.818.743,3.009,3.009,0,0,1,.821,2.342v7.877h-2v-7.745a2.852,2.852,0,0,0-.068-.688,1.509,1.509,0,0,0-.264-.531,2.54,2.54,0,0,0-1.977-.555,7.328,7.328,0,0,0-1.752.155,1.2,1.2,0,0,0-.789.533,2.273,2.273,0,0,0-.21,1.086v7.745h-2v-7.745a2.964,2.964,0,0,0-.068-.688,1.481,1.481,0,0,0-.266-.531,2.5,2.5,0,0,0-1.953-.555,8.194,8.194,0,0,0-1.841.155,1.381,1.381,0,0,0-.865.522,1.979,1.979,0,0,0-.245,1.1v7.745h-2Z" transform="translate(-134.461 -328.384)" fill="#e2dada"/>
      <path id="Path_18" data-name="Path 18" d="M304.227,296.871V295.34a26.47,26.47,0,0,0,3.726.421,5.412,5.412,0,0,0,2.044-.278,1.027,1.027,0,0,0,.621-1.031v-1.088a1.057,1.057,0,0,0-.467-.976,2.973,2.973,0,0,0-1.507-.286h-1.221a4.041,4.041,0,0,1-2.54-.688,2.314,2.314,0,0,1-.878-1.931v-1q0-2.529,4.795-2.527c.238,0,1.326.057,3.261.177v1.442a22.046,22.046,0,0,0-3.351-.31,5.057,5.057,0,0,0-2.152.31,1.089,1.089,0,0,0-.577,1.042v.911q0,1.088,1.972,1.088H309.2q3.394,0,3.4,2.529v.93a2.542,2.542,0,0,1-1.156,2.363,6.96,6.96,0,0,1-3.53.7A27.415,27.415,0,0,1,304.227,296.871Z" transform="translate(-124.091 -328.384)" fill="#e2dada"/>
      <path id="Path_19" data-name="Path 19" d="M312.365,298.523a1.966,1.966,0,0,1-1.118-1.02,4.786,4.786,0,0,1-.345-2.029v-6.3h-2.4v-1.308h2.4v-3.329h2.018v3.329h3.84v1.308h-3.84v6.413a2.954,2.954,0,0,0,.188,1.2,1.092,1.092,0,0,0,.668.566,4.4,4.4,0,0,0,1.387.166c.192,0,.723-.059,1.6-.177v1.308a14.484,14.484,0,0,1-2.241.177A6.212,6.212,0,0,1,312.365,298.523Z" transform="translate(-118.761 -330.07)" fill="#e2dada"/>
      <path id="Path_20" data-name="Path 20" d="M314.111,296.275a2.988,2.988,0,0,1-.832-2.341v-7.877h2v7.765a2.458,2.458,0,0,0,.076.677,1.764,1.764,0,0,0,.277.522c.269.384.917.577,1.953.577a6,6,0,0,0,2.309-.31,1.145,1.145,0,0,0,.644-1.131v-8.1h2V296.8h-2v-1.308q-.288,1.53-3.53,1.529A4.366,4.366,0,0,1,314.111,296.275Z" transform="translate(-113.107 -328.265)" fill="#e2dada"/>
      <path id="Path_21" data-name="Path 21" d="M320.647,299.3a2.329,2.329,0,0,1-1.319-1.055,4.181,4.181,0,0,1-.411-2.04v-4.727a2.654,2.654,0,0,1,1.009-2.331,5.99,5.99,0,0,1,3.34-.708,7.316,7.316,0,0,1,2.409.354c.671.238,1.016.577,1.029,1.02h.046l-.046-2.728v-3.217h2V299.4H326.75v-1.265c0,.4-.319.738-.954,1.02a6.126,6.126,0,0,1-2.641.465A7.808,7.808,0,0,1,320.647,299.3Zm5.325-1.431a1.328,1.328,0,0,0,.732-1.287v-5.3q0-1.445-2.949-1.444a6.255,6.255,0,0,0-2.309.266,1.172,1.172,0,0,0-.555,1.177v5.3a1.39,1.39,0,0,0,.612,1.287,4.177,4.177,0,0,0,2.075.376A5.569,5.569,0,0,0,325.972,297.864Z" transform="translate(-106.43 -330.863)" fill="#e2dada"/>
      <path id="Path_22" data-name="Path 22" d="M324.9,284.279h2v2.086h-2Zm0,3.884h2V298.9h-2Z" transform="translate(-99.345 -330.37)" fill="#e2dada"/>
      <path id="Path_23" data-name="Path 23" d="M330.034,297.037a4.983,4.983,0,0,1-1.422-.43,2.089,2.089,0,0,1-1.064-1.077,5.02,5.02,0,0,1-.332-2.009v-3.726a5.678,5.678,0,0,1,.245-1.754,3.025,3.025,0,0,1,.642-1.175,2.177,2.177,0,0,1,1.011-.588A6.748,6.748,0,0,1,330.5,286c.531-.031,1.086-.044,1.662-.044.769,0,1.352.017,1.741.055a7.763,7.763,0,0,1,1.256.232,2.322,2.322,0,0,1,1.064.6,3.238,3.238,0,0,1,.644,1.153,6.036,6.036,0,0,1,.243,1.8v3.726a3.776,3.776,0,0,1-.863,2.752,2.391,2.391,0,0,1-1.022.555,7.009,7.009,0,0,1-1.376.266c-.561.028-1.125.044-1.686.044A16.423,16.423,0,0,1,330.034,297.037Zm3.484-1.252a2.432,2.432,0,0,0,.821-.245,1.042,1.042,0,0,0,.564-.588,3.132,3.132,0,0,0,.168-1.145v-4.347a3.257,3.257,0,0,0-.245-1.455,1.209,1.209,0,0,0-.832-.6,11.674,11.674,0,0,0-3.659,0,1.208,1.208,0,0,0-.832.6,3.19,3.19,0,0,0-.247,1.455v4.347a3.135,3.135,0,0,0,.168,1.145,1.049,1.049,0,0,0,.564.588,2.4,2.4,0,0,0,.821.245c.282.028.734.044,1.354.044S333.236,295.814,333.518,295.785Z" transform="translate(-96.601 -328.384)" fill="#e2dada"/>
    </g>
  </g>
</svg>
