<svg xmlns="http://www.w3.org/2000/svg" width="105.501" height="105.5" viewBox="0 0 105.501 105.5">
  <g id="Group_16" data-name="Group 16" transform="translate(-84.147 135.542)">
    <g id="Group_15" data-name="Group 15" transform="translate(84.147 -135.542)">
      <path id="Path_12" data-name="Path 12" d="M346.619,284.956H308.256a4.8,4.8,0,0,1-3.39-8.186l38.363-38.363a4.795,4.795,0,0,1,8.186,3.39V280.16A4.794,4.794,0,0,1,346.619,284.956Zm-26.785-9.593h21.991V253.372Z" transform="translate(-303.46 -237)" fill="#e2dada"/>
      <path id="Path_13" data-name="Path 13" d="M346.619,305.937a4.8,4.8,0,0,1-3.39-1.4L304.867,266.17a4.795,4.795,0,0,1,3.39-8.186h38.363a4.792,4.792,0,0,1,4.8,4.794v38.363a4.793,4.793,0,0,1-4.8,4.8Zm-26.785-38.363,21.991,21.991V267.574Z" transform="translate(-303.46 -200.438)" fill="#e2dada"/>
      <path id="Path_14" data-name="Path 14" d="M367.6,284.952H329.24a4.8,4.8,0,0,1-4.8-4.8V241.792a4.8,4.8,0,0,1,8.186-3.39l38.363,38.363a4.8,4.8,0,0,1-3.39,8.186Zm-33.569-9.593h21.991l-21.991-21.991Z" transform="translate(-266.898 -236.996)" fill="#e2dada"/>
      <path id="Path_15" data-name="Path 15" d="M367.6,305.939H329.241a4.8,4.8,0,0,1-3.392-8.186l38.363-38.363a4.795,4.795,0,0,1,8.186,3.39v38.363A4.792,4.792,0,0,1,367.6,305.939Zm-26.788-9.59h21.991V274.358Z" transform="translate(-266.899 -200.439)" fill="#e2dada"/>
    </g>
  </g>
</svg>
