<svg id="pinterest" xmlns="http://www.w3.org/2000/svg" width="21.108" height="25.979" viewBox="0 0 21.108 25.979">
  <g id="Group_9" data-name="Group 9" transform="translate(0)">
    <path id="Path_9" data-name="Path 9" d="M58.911,0C51.791,0,48,4.563,48,9.538c0,2.307,1.289,5.185,3.353,6.1.313.141.484.081.554-.209.062-.221.333-1.284.464-1.786a.459.459,0,0,0-.11-.451A5.917,5.917,0,0,1,51.036,9.6c0-3.47,2.759-6.839,7.453-6.839,4.059,0,6.9,2.637,6.9,6.409,0,4.262-2.255,7.211-5.186,7.211a2.322,2.322,0,0,1-2.447-2.848c.463-1.875,1.37-3.892,1.37-5.245A2.014,2.014,0,0,0,57.04,6.07c-1.651,0-2.991,1.635-2.991,3.831a5.461,5.461,0,0,0,.494,2.337s-1.634,6.6-1.937,7.832a17.524,17.524,0,0,0,.12,5.756.171.171,0,0,0,.312.08,20.458,20.458,0,0,0,2.689-5.065c.2-.742,1.028-3.751,1.028-3.751a4.489,4.489,0,0,0,3.787,1.806c4.975,0,8.57-4.373,8.57-9.8C69.094,3.892,64.641,0,58.911,0Z" transform="translate(-48.004)" fill="#e2dada"/>
  </g>
</svg>
